<?xml version="1.0" standalone="no"?>
<!DOCTYPE svg PUBLIC "-//W3C//DTD SVG 20010904//EN"
 "http://www.w3.org/TR/2001/REC-SVG-20010904/DTD/svg10.dtd">
<svg version="1.0" xmlns="http://www.w3.org/2000/svg"
 width="1024.000000pt" height="614.000000pt" viewBox="0 0 1024.000000 614.000000"
 preserveAspectRatio="xMidYMid meet">

<g transform="translate(0.000000,614.000000) scale(0.100000,-0.100000)"
fill="#000000" stroke="none">
<path d="M5060 5320 c-163 -19 -274 -74 -395 -195 -70 -70 -99 -107 -127 -165
-79 -161 -73 -3 -73 -1885 0 -1597 1 -1684 18 -1752 61 -238 249 -425 492
-489 67 -18 142 -19 1745 -19 1879 0 1721 -6 1885 74 176 87 303 243 352 434
17 68 18 155 18 1752 0 1883 6 1723 -73 1885 -43 87 -175 229 -256 273 -80 44
-182 76 -274 87 -103 12 -3212 12 -3312 0z m3291 -260 c176 -33 321 -174 358
-348 16 -75 16 -3209 0 -3284 -37 -174 -182 -315 -358 -348 -74 -14 -3188 -14
-3262 0 -176 33 -321 174 -358 348 -16 75 -16 3209 0 3284 36 168 173 308 339
344 71 16 3198 19 3281 4z"/>
<path d="M5040 4455 l0 -295 100 0 100 0 0 -100 0 -100 -100 0 -100 0 0 -100
0 -100 100 0 101 0 -3 -97 -3 -98 -97 -3 -98 -3 0 -295 0 -295 98 3 97 3 3
198 2 197 95 0 95 0 0 95 0 95 165 1 c91 0 180 1 198 2 l32 1 3 -97 3 -97 99
0 100 0 0 395 0 394 98 3 97 3 0 80 c0 44 -1 86 -3 93 -3 9 -52 12 -198 12
l-194 0 0 -95 0 -94 -97 -3 -98 -3 -3 -98 -3 -98 -97 3 -97 3 -3 98 -3 97 -94
0 -95 0 -2 293 -3 292 -97 3 -98 3 0 -296z m790 -595 l0 -100 -100 0 -100 0 0
100 0 100 100 0 100 0 0 -100z"/>
<path d="M5830 4650 l0 -101 98 3 97 3 3 98 3 97 -101 0 -100 0 0 -100z"/>
<path d="M6230 4650 l0 -100 95 0 95 0 0 -195 0 -195 -95 0 -95 0 0 -200 0
-200 393 2 392 3 3 98 3 97 94 0 94 0 3 98 3 97 198 3 197 2 0 -300 0 -300
-100 0 -100 0 0 -95 0 -95 100 0 100 0 0 -100 0 -100 -100 0 -100 0 0 -495 0
-495 200 0 200 0 0 100 0 100 95 0 94 0 3 98 3 97 98 3 97 3 0 94 0 95 -195 0
-195 0 0 100 0 100 195 0 195 0 0 100 0 100 100 0 100 0 0 195 0 195 -100 0
-100 0 0 -95 0 -95 -99 0 -98 0 -2 95 -2 95 85 0 c46 0 91 3 100 6 13 5 16 24
16 100 l0 94 100 0 100 0 0 100 0 100 -100 0 -100 0 0 195 c0 107 3 195 8 196
4 0 48 1 97 2 l90 2 3 98 3 97 -101 0 -100 0 0 100 0 100 -195 0 -195 0 0
-100 0 -100 -100 0 -100 0 0 100 0 100 -194 0 c-146 0 -195 -3 -198 -12 -2 -7
-2 -52 0 -100 l4 -88 94 0 94 0 0 -100 0 -100 -295 0 -295 0 0 100 0 99 98 3
97 3 0 95 0 95 -197 3 -198 2 0 -100 0 -100 -100 0 -100 0 0 100 0 100 -95 0
-95 0 0 -100z m1780 -295 l0 -195 -200 0 -200 0 0 95 c0 69 3 95 13 95 6 1 50
2 97 3 l85 2 3 98 3 97 99 0 100 0 0 -195z m-1390 -295 l0 -100 -100 0 -100 0
0 100 0 100 100 0 100 0 0 -100z m398 -2 l3 -98 -101 0 -100 0 0 100 0 101 98
-3 97 -3 3 -97z m987 -198 l0 -95 -97 -3 -98 -3 0 101 0 101 98 -3 97 -3 0
-95z m-195 -396 l0 -94 -100 0 -100 0 0 93 c0 52 2 96 4 98 2 2 47 3 100 1
l96 -3 0 -95z m0 -394 l0 -100 -100 0 -100 0 0 100 0 100 100 0 100 0 0 -100z
m0 -495 l0 -195 -100 0 -100 0 0 195 0 195 100 0 100 0 0 -195z"/>
<path d="M7218 3953 c-3 -7 -2 -141 1 -180 1 -10 27 -13 96 -13 l95 0 0 100 0
100 -94 0 c-52 0 -96 -3 -98 -7z"/>
<path d="M6230 3070 l0 -490 490 0 490 0 0 490 0 490 -490 0 -490 0 0 -490z
m785 0 l0 -295 -295 0 -295 0 -3 285 c-1 157 0 290 3 298 3 10 67 12 297 10
l293 -3 0 -295z"/>
<path d="M6620 3070 l0 -100 100 0 100 0 0 100 0 100 -100 0 -100 0 0 -100z"/>
<path d="M5437 3363 c-4 -3 -7 -138 -7 -300 l0 -293 -95 0 -95 0 0 -95 0 -95
-100 0 -100 0 0 -200 0 -201 98 3 97 3 3 98 3 98 95 -3 95 -3 0 -195 1 -195
-96 -3 -96 -3 0 -94 0 -95 195 0 195 0 0 -100 0 -99 -97 -3 -98 -3 0 -95 0
-95 198 -3 197 -2 0 100 0 100 100 0 100 0 0 -100 0 -100 94 0 c52 0 96 3 98
8 2 4 2 49 0 99 l-3 93 -95 0 -94 0 0 94 c0 80 -3 95 -17 100 -10 4 -99 6
-198 5 l-180 -2 -3 96 -3 97 198 2 198 3 3 98 3 98 97 -3 97 -3 3 -192 2 -193
195 0 195 0 0 95 0 95 200 0 201 0 -3 -96 -3 -95 -195 -2 -195 -2 -3 -97 -3
-97 -97 -3 -97 -3 0 -95 0 -95 98 -3 97 -3 0 101 0 100 100 0 100 0 0 -100 0
-100 195 0 195 0 0 100 0 100 -95 0 -95 0 0 100 0 100 95 0 95 0 0 295 0 295
-195 0 -195 0 0 -100 0 -100 -100 0 -100 0 0 100 0 100 -295 0 -294 0 -3 98
-3 97 -197 3 -198 2 0 195 0 195 100 0 99 0 3 -97 3 -98 95 0 95 0 3 198 2
197 -200 0 -200 0 0 100 0 100 -93 0 c-52 0 -97 -3 -100 -7z m393 -1083 l0
-100 -100 0 -100 0 0 100 0 100 100 0 100 0 0 -100z m790 -200 l0 -101 -97 3
-98 3 -3 98 -3 97 101 0 100 0 0 -100z"/>
<path d="M8207 2573 c-4 -3 -7 -48 -7 -100 l0 -93 100 0 100 0 0 100 0 100
-93 0 c-52 0 -97 -3 -100 -7z"/>
<path d="M8008 2083 l-3 -98 -97 -3 -98 -3 0 -94 0 -95 295 0 295 0 0 95 0 95
-100 0 -100 0 0 100 0 100 -95 0 -94 0 -3 -97z"/>
<path d="M7410 1885 l0 -95 100 0 100 0 0 95 0 95 -100 0 -100 0 0 -95z"/>
<path d="M7219 1726 c0 -36 -1 -81 -2 -98 l-1 -33 98 -3 97 -3 -3 98 -3 98
-92 3 -93 4 -1 -66z"/>
<path d="M7617 1783 c-4 -3 -7 -48 -7 -100 l0 -93 100 0 100 0 0 -100 0 -100
95 0 95 0 0 100 0 100 -95 0 -95 0 0 94 0 93 -37 7 c-50 8 -148 8 -156 -1z"/>
<path d="M5040 1490 l0 -101 98 3 97 3 0 95 0 95 -97 3 -98 3 0 -101z"/>
<path d="M8204 1577 c-3 -8 -4 -52 -2 -98 l3 -84 98 -3 97 -3 0 101 0 100 -95
0 c-71 0 -97 -4 -101 -13z"/>
<path d="M2845 5123 c3 -10 20 -56 36 -103 16 -47 65 -184 108 -305 89 -252
94 -224 -43 -245 -401 -61 -793 -279 -1061 -589 -202 -233 -330 -492 -396
-802 -19 -88 -23 -137 -23 -309 -1 -237 13 -332 75 -525 76 -235 198 -435 374
-611 91 -91 234 -208 243 -199 2 2 -17 28 -42 59 -289 356 -411 822 -326 1256
92 475 416 867 859 1040 84 32 247 69 338 77 l83 6 -29 -84 c-16 -46 -68 -194
-115 -328 -48 -134 -85 -245 -83 -247 1 -2 126 79 278 179 151 100 478 316
727 481 248 164 452 301 452 305 0 3 -74 54 -163 112 -89 59 -331 218 -537
355 -604 399 -750 494 -756 494 -4 0 -3 -8 1 -17z"/>
<path d="M2345 3051 c-54 -10 -97 -34 -129 -71 -34 -41 -37 -123 -5 -164 28
-35 50 -46 149 -71 70 -17 85 -25 85 -41 0 -28 -95 -32 -162 -6 l-50 19 -27
-54 c-14 -30 -24 -58 -21 -63 13 -22 114 -44 200 -44 102 0 151 18 200 76 24
29 27 38 23 92 -6 81 -35 106 -153 134 -94 23 -111 32 -102 56 8 21 89 21 147
1 24 -8 44 -14 45 -13 6 7 45 101 45 108 0 27 -167 55 -245 41z"/>
<path d="M2850 3051 c-58 -13 -87 -28 -129 -66 -101 -91 -100 -269 1 -360 57
-53 101 -68 188 -69 64 -1 83 3 134 29 88 44 92 57 32 110 l-49 44 -28 -24
c-41 -34 -82 -40 -126 -18 -46 22 -63 53 -63 114 0 107 116 153 196 78 l21
-20 49 45 c59 54 56 67 -27 108 -59 29 -143 41 -199 29z"/>
<path d="M3316 3018 c-7 -18 -55 -127 -105 -241 -50 -115 -91 -211 -91 -213 0
-3 37 -4 82 -2 l81 3 16 43 15 43 95 -3 94 -3 15 -42 14 -43 79 0 c56 0 79 4
79 13 0 6 -46 117 -102 245 l-102 232 -78 0 -78 0 -14 -32z m109 -175 c33 -77
32 -83 -12 -83 -22 0 -42 2 -45 5 -5 6 31 115 38 115 2 0 11 -17 19 -37z"/>
<path d="M3730 2805 l0 -245 75 0 c53 0 75 4 76 13 0 6 0 51 0 99 0 48 3 90 8
92 5 3 48 -42 95 -99 l87 -105 65 0 64 0 0 245 0 245 -75 0 -75 0 -1 -97 c-1
-54 -1 -101 0 -105 4 -25 -27 4 -104 97 l-87 105 -64 0 -64 0 0 -245z"/>
<path d="M2210 2095 l0 -385 115 0 115 0 0 168 c1 193 -9 191 101 15 l70 -113
54 0 54 0 67 113 c111 186 98 187 104 -8 l5 -170 115 0 115 0 0 63 c-1 34 -2
206 -3 382 l-2 320 -104 0 -103 0 -119 -200 c-66 -110 -122 -200 -125 -200 -3
0 -61 90 -128 200 l-123 200 -104 0 -104 0 0 -385z"/>
<path d="M3252 2098 l3 -383 312 -3 313 -2 5 22 c3 13 5 57 3 98 l-3 75 -192
3 -193 2 0 50 0 50 165 0 165 0 0 90 c0 79 -2 90 -17 91 -10 0 -83 1 -163 2
l-145 2 0 45 0 45 183 3 182 2 0 95 0 95 -310 0 -310 0 2 -382z"/>
<path d="M3950 2469 c0 -23 41 -415 46 -436 4 -22 9 -23 99 -23 90 0 95 1 99
23 5 21 46 413 46 436 0 8 -44 11 -145 11 -101 0 -145 -3 -145 -11z"/>
<path d="M4013 1940 c-61 -37 -79 -108 -43 -167 54 -89 207 -85 255 7 45 88
-21 180 -130 180 -32 0 -62 -7 -82 -20z"/>
</g>
</svg>
